/* XPM */
static const char *bitcoin32_xpm[] = {
/* columns rows colors chars-per-pixel */
"32 32 848 2",
"q$ c #A58A45",
"Lo c #D0B265",
"[$ c #8D7A56",
"C@ c #DEDEDE",
"%  c #CBC6B2",
":@ c #D0B26A",
"4X c #9A9795",
"E# c #AB9150",
"Zo c #C39B3C",
"_. c #A09E9B",
"Po c #E2C16D",
"ZO c #B79F58",
"H. c #CFA341",
"`$ c #878581",
"#X c #D5AA45",
"|. c #ACACAC",
"[O c #8C7D4E",
"W  c #8D8C89",
"L. c #DBB14C",
"Y+ c #8D8C8C",
"So c #F4E291",
"O@ c #8C7D54",
"@o c #EED58B",
"!  c #939393",
"%O c #C9A865",
"IO c #CAC3B4",
"-. c #999A9D",
"C  c #7A7A7B",
"#$ c #EDC665",
"!+ c #AA945B",
"<# c #808180",
"<$ c #808183",
"G  c #B09B61",
")  c #BC9D53",
"z$ c #E0AF39",
"MX c #D0D0D0",
"Fo c #F4EEC2",
"L  c #ECC34D",
"cX c #C3BFAB",
" $ c #857354",
"u+ c #8C8F96",
"%. c #B7B7B7",
"4$ c #73706C",
"vO c #A49F8C",
"|@ c #F2CA54",
"Uo c #D4AD5E",
"A$ c #7F7E77",
"vX c #BDBEC3",
"&. c #9E9E9E",
"f# c #7F7E7A",
"M+ c #E0C16F",
"}O c #A9975F",
"N@ c #9E9EA1",
"'+ c #96792D",
"Z+ c #C1A14D",
"(O c #BBA65D",
"p+ c #C1A757",
"|  c #F2D06F",
"U$ c #DFAC38",
"$$ c #BBA05E",
"++ c #A39673",
"P. c #CDA952",
"o+ c #A39676",
"OO c #B5A56F",
"+O c #D3B058",
"uO c #AE8932",
"$  c #C8C3AD",
"3$ c #919396",
"HX c #DFB858",
">@ c #F8D785",
"1% c #8A7756",
"W. c #DFB859",
"E+ c #9D9B96",
"/X c #9D9B98",
"r@ c #9D9B99",
">% c #8A7D66",
"io c #AE9551",
"G+ c #AE9552",
"n  c #C2C2C2",
":% c #90846C",
"c# c #B49C5A",
":X c #DEA930",
"fo c #D4D1C4",
"k+ c #ECE1B7",
"co c #E0DFC5",
"qX c #A9A9A9",
"9  c #E4B63E",
"+$ c #E4B63F",
"EX c #D8A83F",
"7o c #C6A557",
"YO c #FFFFF4",
"%+ c #7D7256",
"O  c #C7C0A3",
">  c #FFFFF7",
"Z@ c #90908E",
"V$ c #717069",
"GX c #DEB551",
"B@ c #909090",
"O% c #DEAF4B",
"6o c #9C988C",
":  c #FFFFFF",
"2  c #F7E090",
"AO c #CCB872",
"SO c #BF9530",
"'o c #837F6B",
"{O c #DEC772",
".+ c #958869",
"fX c #E4CE7B",
"l. c #D1A43C",
"p# c #CBA344",
"m@ c #CBA345",
"Z  c #89867D",
"U  c #261F0E",
"i  c #CDCDCD",
"*% c #AEADAC",
"~$ c #D9D5CB",
"h+ c #AEADAE",
"OX c #DDB249",
"7  c #E9C04A",
"yX c #DDB24B",
"=@ c #F6DD86",
"%# c #DDB24D",
"X$ c #9A7A44",
"w# c #AC8F45",
".O c #94855A",
"6+ c #B29648",
"1O c #9B9B9C",
"`O c #B29652",
"n$ c #B29656",
"S. c #828282",
"A@ c #828283",
"=O c #D2D1CF",
"L$ c #E8BD45",
"v. c #E8B73E",
"hO c #88898B",
"do c #DCA940",
"F+ c #B3B1B0",
"}# c #8E9092",
"0# c #F5E695",
";@ c #BEAA6F",
"I. c #DCB553",
"/  c #8E9093",
"(@ c #D8D8D8",
"O. c #B9B8B4",
"}@ c #EECA56",
"l  c #EECA5A",
"Do c #E3D7A3",
"|O c #998958",
"eO c #E2BC5C",
"_  c #BD9538",
"@. c #9A9896",
")X c #BFBFBF",
"(X c #BFBFC0",
"&  c #D1CEB9",
"[o c #F5F2BD",
"%$ c #987A32",
"nO c #878683",
"*X c #BDB36E",
"7+ c #C3A85A",
"j@ c #C3A862",
"aO c #B08A2E",
"F# c #8D8D8D",
" . c #EDC147",
"iX c #DBB24F",
"S  c #B08A33",
"fO c #FCFCFD",
"A# c #939496",
"H  c #C9B577",
"S+ c #DBBE69",
"-  c #E3E3E0",
"[X c #999B9E",
"K+ c #C3B487",
"i$ c #7A7B7E",
"d. c #CEA13B",
"<. c #EDC769",
"x  c #CACACA",
"N. c #D5C994",
"<X c #D5C999",
"7X c #B1B1B1",
"$O c #A98634",
"-% c #989285",
"@+ c #A49A80",
"M$ c #A3853F",
"rX c #989288",
"gX c #FFE88C",
"wO c #9D8448",
"Mo c #929191",
"N  c #989897",
"^  c #989898",
"{# c #797873",
"-# c #98989A",
"ao c #A98C4B",
"%@ c #797876",
"($ c #9E9F9D",
"K$ c #101010",
" o c #CD9E35",
"g  c #EDDFAC",
"8+ c #BBA153",
"4+ c #C7A348",
"@$ c #E5B43B",
"t  c #CFCECD",
"FX c #D9AC42",
"%X c #C7A351",
"No c #B6B5AB",
"BO c #ECD688",
"*@ c #978F81",
"l# c #EBC14A",
"{o c #BBAD74",
"g$ c #8B8D91",
" # c #D9B85B",
"no c #BCBCB4",
"E  c #B6B5B5",
"}X c #DFB957",
"uX c #DFB958",
"^# c #D9B863",
"[  c #AE9045",
"y@ c #BCBCBC",
"l$ c #77663C",
"J@ c #AE9654",
"z+ c #D2A231",
"~# c #E5C672",
"ko c #A3A3A3",
"/@ c #A3A3A4",
"x$ c #DEAA33",
"t$ c #CCA141",
"a. c #8A847A",
"-+ c #E0DABF",
"~o c #96927B",
"Q$ c #D9B878",
"JO c #D2A844",
"a$ c #8A8A88",
"z# c #EABE43",
"X+ c #A29474",
"8X c #8A8A8A",
"f. c #D8AF4D",
",+ c #B98F2A",
"1+ c #AD8D38",
"+X c #DEB651",
"wo c #FDE88E",
"oo c #FDE288",
"F. c #909194",
"so c #DEB04E",
"RX c #A78C49",
"NX c #E0E0E0",
"LX c #EACA68",
"K  c #F6D266",
"-$ c #947429",
"U. c #D1A53D",
"b@ c #D1A53E",
"QO c #88723C",
"+. c #C7C7CB",
"8. c #E3B43B",
"!o c #F7F3C0",
"^$ c #CDCECF",
")o c #AEAEA9",
"w. c #898784",
"s+ c #83868E",
"j+ c #FDEEB7",
"S# c #AEAEAE",
";X c #E3B445",
",@ c #C5A961",
"w  c #CCC5A3",
"0@ c #706E67",
"Ho c #BFAE77",
"D. c #959595",
"qO c #EAE2A6",
"{  c #A68F51",
"^+ c #D7B869",
"d$ c #7C7C75",
")$ c #9B9C9E",
"}+ c #93772F",
"*+ c #EBEBEC",
"|+ c #9F7F2C",
"<o c #CCCBC8",
"$+ c #7B6D4A",
"7O c #D0A847",
"2O c #9A9981",
"mX c #D2D2D2",
"]O c #8D7C4C",
"6O c #9A9383",
"=# c #94928C",
"a# c #94928D",
"-@ c #FBE28C",
"`# c #9A9994",
"=. c #9A9999",
"-O c #7B7976",
"@% c #E2B761",
"t. c #A0A0A0",
"2$ c #81807B",
",X c #DBA732",
"b. c #E1AE35",
"`+ c #A4832C",
"y. c #878787",
"*o c #DBA73B",
"3  c #F4D87D",
"8  c #E7BB43",
"Y  c #C4BEA3",
"N+ c #E1BA4D",
"q@ c #8D8E90",
"po c #CFB163",
"!X c #D6CDA8",
")@ c #DDDDDD",
"F  c #AA9050",
"v$ c #E7BB5B",
"C. c #9F9D9A",
"Eo c #807D79",
" @ c #9D7F2A",
"q. c #C4C4C7",
"ZX c #A5A4A4",
"3@ c #B69E5D",
"m  c #CACBCD",
" + c #BCA560",
"5O c #D5CA94",
"VO c #BCA561",
"mo c #ABABAB",
"/O c #978447",
"k. c #DAB04B",
"4# c #ECC54F",
"G. c #989388",
"/o c #A4A189",
"6  c #ECC552",
"RO c #917D50",
"x@ c #FFE98E",
"|$ c #857558",
"]# c #929293",
"Yo c #E0B150",
"X@ c #737270",
"p$ c #989999",
"qo c #E6C461",
"A+ c #B6AA84",
">. c #C19735",
"F@ c #F2D268",
"s# c #E8E8E8",
"aX c #CD9F38",
"E. c #AF9A5D",
"x+ c #D3A63A",
"J. c #D3A63C",
"a  c #C9C8C8",
"WX c #DFA831",
"Ro c #CFCFCE",
"!# c #D9AD45",
"># c #CFCFD0",
"1@ c #F2D27A",
"c@ c #F8DF81",
"6# c #EBC24A",
"U# c #EBC24B",
"u  c #D5D6D6",
"a@ c #8B8E91",
"Y. c #D3AC53",
"]. c #B6B6B6",
",$ c #787670",
",  c #FFFBD5",
"~  c #9D9D9D",
"V  c #7E7D7B",
"s@ c #96876A",
"!. c #DEAB33",
".  c #D9CB90",
"#@ c #776D54",
"UO c #FFFBED",
"<+ c #D8B654",
"9@ c #A18036",
"kO c #6B6B69",
"J# c #8A8B90",
"[. c #6B6B6B",
"y# c #DEB754",
"e  c #C7C2AB",
"PX c #FDE98F",
"F$ c #909294",
"M@ c #96938D",
"zo c #BBBABA",
"c. c #DEBD6A",
"c  c #C1C1C1",
"bO c #838175",
"pO c #C59E3F",
"&O c #E4B85E",
"5+ c #BFA351",
")O c #EAD178",
"S@ c #83817E",
"R  c #C7C8CC",
"d+ c #7D8088",
":o c #A8A8A7",
"^@ c #A8A8A8",
"0  c #E3B53D",
"B  c #898886",
"$# c #D7AD48",
"|X c #D7AD49",
"7@ c #D7AD4A",
"*$ c #CBAB59",
"NO c #EADD94",
"D# c #8F8F8F",
"rO c #DDB450",
"5$ c #827257",
"tO c #A0894A",
"j# c #9A7C47",
".$ c #070707",
"eX c #959698",
"s$ c #767673",
"]@ c #827866",
">+ c #CA9C2E",
"e. c #767674",
"=o c #D2CDB3",
"xo c #C6C5BC",
"=X c #DDCC7A",
"-X c #AC914E",
"9O c #A09564",
";o c #A19E9A",
"x# c #EFC963",
"Q+ c #F6E5A8",
"{+ c #CAA241",
"p  c #C6C5C5",
"Bo c #E4E2C0",
"XO c #A69667",
"Q@ c #CAA244",
"KO c #D0A948",
"_X c #CCCCCC",
"B+ c #937E40",
"+@ c #A58734",
"0O c #B8A56B",
"@  c #CBC3A1",
"z@ c #F5D680",
"xX c #D7CB9C",
"cO c #94938B",
"IX c #FBE388",
"v# c #C4B372",
"&X c #E2C45D",
"b# c #AB8E40",
" % c #877656",
"l@ c #D0B56C",
"Z$ c #7B7A73",
"Z. c #9A9A99",
"y$ c #B18F43",
"}. c #9A9A9A",
"LO c #BD973C",
"r  c #C5C2BA",
"o$ c #74643B",
"~@ c #9A9A9C",
"|o c #E9E0AD",
"R. c #B19B54",
".# c #AB9455",
"MO c #D0C183",
"2+ c #D5A733",
"D@ c #99855F",
"'O c #AB945A",
"1  c #FBE9A7",
"_# c #C39E49",
"W$ c #E2BE73",
";O c #878888",
"T# c #E7BC43",
"{X c #DBAE45",
"j$ c #807258",
"y  c #D7D7D9",
"x. c #9E8346",
"b$ c #CFAC5F",
",% c #867961",
"dO c #EECC8A",
"9$ c #D5B367",
"u@ c #BEBEBE",
"s. c #BC943A",
".@ c #796839",
"Q# c #C89C37",
"DO c #D4A430",
"k@ c #B09857",
"E$ c #E7BC62",
"iO c #CEA33D",
"6. c #E7C871",
"zX c #DAA531",
"DX c #CEA33F",
" X c #A5A5A5",
"XX c #CEA340",
"QX c #DAA533",
"g# c #808488",
".. c #E6B940",
"v+ c #9D8037",
"D$ c #8C8C8B",
"{. c #8C8C8C",
"1$ c #6D6C68",
"B$ c #9D803F",
"5# c #ECC650",
"X# c #F9DD84",
"TO c #DCDBD6",
"l+ c #A38742",
".X c #929396",
"d  c #CFCAAE",
"T+ c #737370",
"{$ c #8B7755",
"[# c #737371",
"8$ c #ECC055",
"'. c #E2E2E2",
"~X c #C3C2BE",
"2. c #B5964B",
"`o c #EDE7B5",
"(+ c #E0BE6D",
",o c #C9C9C7",
"z  c #C9C9C9",
"_@ c #C9C9CA",
"/# c #BB9D55",
"n+ c #CDAC52",
"Y@ c #F8E082",
"N# c #CDAC56",
"^X c #B0B0AF",
"oO c #FFFCCA",
"|# c #72706B",
"L+ c #EBC353",
"<O c #847F66",
"Ao c #E5C25E",
"Wo c #979797",
"K@ c #D3B96F",
"#. c #787774",
"## c #CC9D34",
"`@ c #7E7E7A",
"I+ c #7E7E7D",
"u. c #7E7E7E",
"jO c #A3A5A8",
"Z# c #CCA345",
"X% c #DEAC3B",
"T$ c #DEAC3E",
"O# c #E5D490",
"w@ c #D4D4D4",
"xO c #8A8C91",
"eo c #EBD58E",
"M  c #B5B4B5",
"$% c #EBC985",
"t# c #DEB858",
"L# c #957948",
"J$ c #897757",
"2# c #8F7850",
"P# c #9B7A43",
":+ c #C5992E",
"2@ c #D2B66C",
"0$ c #A78E4F",
"t@ c #9C9B99",
"V. c #C1C2C6",
"$o c #AD9558",
"j. c #BF9E4D",
"m. c #DDA932",
"@@ c #9A7D31",
"^O c #BF9E51",
" O c #CCC79B",
"X. c #E3B63E",
"L@ c #EACC79",
"0. c #C6C09F",
",. c #D7AE49",
"VX c #898989",
"zO c #6A6965",
"n@ c #DDAF46",
"V+ c #A08A44",
":O c #8F9090",
"B. c #BAB8AF",
"]o c #94824E",
"U@ c #FCE78C",
"9o c #DDB552",
"T  c #BAB8B1",
"yO c #948857",
"&@ c #959799",
"m+ c #D7BA6C",
"%o c #B89444",
"f+ c #76777D",
"0+ c #A19F9E",
"I  c #1F1808",
"/$ c #A7A6A3",
"c+ c #D6AB42",
"I$ c #E2B33D",
"T@ c #D6AB45",
"T. c #C4A254",
"3X c #ADADAD",
"u# c #DCB24A",
"b+ c #E2B94A",
"P  c #E8C04A",
"&o c #E2AD3D",
";+ c #AB8935",
"#  c #CBC4A4",
"$@ c #949494",
"=$ c #E2B956",
"I# c #997A45",
"A. c #949495",
"GO c #CFA131",
"Io c #AB8F4E",
"k  c #F4D46A",
"4O c #B8B295",
"pX c #CFA138",
"*O c #EAEAE9",
"!O c #EED376",
">O c #818281",
"oX c #D5A83E",
"v@ c #D5A841",
"J  c #EED37F",
"nX c #D1D1D1",
"jo c #B8B8B8",
"+# c #D5C072",
"g. c #B09348",
"g@ c #DBC170",
"sO c #C3AB7A",
"]X c #9F9F9F",
"). c #BEBFC5",
"0o c #CE9E36",
"bo c #DCDCC1",
"i+ c #988F71",
"C# c #D4A53B",
"$X c #CEA443",
"_+ c #9D8135",
"ro c #E1C882",
"lo c #868686",
"W@ c #DAAC41",
"Ko c #BCA15D",
"}o c #EDD684",
"1X c #CFC59A",
"w+ c #CEB058",
"(. c #C3BDA1",
"8o c #DAB24D",
"M# c #DAB24F",
"1o c #D6D5D3",
"+o c #EDD083",
"4@ c #C8B56E",
"z. c #B58B2C",
"h$ c #736E68",
"gO c #DCDCDC",
"e$ c #B5913A",
"@X c #E0B959",
"+% c #E0B355",
"h  c #F9E49C",
"6X c #C3C3C3",
"P+ c #726543",
"/+ c #DABE78",
"#o c #DAC481",
"6@ c #D3A840",
"*  c #D5D2C4",
"-o c #C9CACC",
"r$ c #D3A842",
"Q. c #E5B135",
"CX c #AAAAAA",
"X  c #D4C995",
"P$ c #E5B740",
"V# c #D9AF49",
"o  c #C8C1A1",
"CO c #D3AE52",
"8@ c #D9AF4B",
"7. c #EBBE44",
"N$ c #A88636",
"UX c #F8DB82",
"E@ c #DFB653",
"e# c #BA8F30",
"R+ c #979897",
"'$ c #7E796D",
"=+ c #FFF7D1",
"C$ c #787875",
"AX c #97989B",
"1# c #787878",
")# c #D2A53E",
"W# c #A17C29",
"TX c #E5C97C",
"n. c #27200F",
">o c #CECECE",
"'@ c #84868A",
"kX c #E4AE37",
"3O c #908E84",
"o% c #DEAD41",
"YX c #EBD083",
";. c #968F81",
"b  c #C1BDA8",
"5X c #D4D5D6",
"Oo c #F7D880",
"(o c #FEFAC9",
"r+ c #D8B85A",
"h# c #7D7058",
"`. c #B5B5B3",
"d# c #B5B5B4",
"H$ c #7D705B",
"BX c #B5B5B5",
"~+ c #D8B257",
".% c #957A49",
"]$ c #83775E",
",# c #969592",
"i. c #9C9C9B",
"Jo c #DEBF6D",
"$. c #A2A3A3",
"Q  c #838380",
"~. c #DDAA33",
"uo c #F0D480",
"'# c #898A8C",
"c$ c #E3B140",
"I@ c #F6DB83",
"a+ c #6A6A6A",
"P@ c #F6D57F",
"A  c #A6863C",
"!@ c #95928D",
"`X c #D9D9D9",
"p. c #8F9194",
"ho c #95928E",
"sX c #D7BB65",
"J+ c #ADA282",
"&+ c #BAB9B7",
"{@ c #EFCB5A",
"5  c #EFCB5C",
"m$ c #A68C4C",
"H@ c #F5D267",
"wX c #A1A0A0",
"s  c #CCC8BF",
">X c #DCA731",
"EO c #B29A5C",
"4o c #A7A7A7",
";% c #948976",
";$ c #D6AC46",
"o. c #C5BEA2",
"i@ c #8E8E8D",
"B# c #DCB34F",
"9X c #8E8E8E",
"@O c #DCB350",
"D  c #AB8A3D",
"[+ c #D6BE6B",
"e+ c #877E62",
"k$ c #060606",
">$ c #D6B262",
"f  c #DDD4AD",
".o c #E8C766",
"m# c #CFA23A",
"&% c #EAEBED",
":. c #98782B",
"lX c #DBA42E",
"Vo c #EFE9BC",
"5@ c #EED47A",
"]  c #BD9F55",
"9. c #E1B13A",
"6$ c #E1B13B",
"^. c #D6CA95",
"R# c #E7B83F",
"K. c #DBB049",
"v  c #CAC2A2",
"to c #F4D57F",
"h. c #A4863A",
"'X c #B2B2B2",
"mO c #93928D",
"U+ c #939292",
"}  c #C9B371",
"Co c #C3B279",
"7# c #F3CC59",
"3# c #987E4F",
"g+ c #999999",
"O$ c #73633A",
"q+ c #B1A98F",
"5. c #AA9357",
"H# c #80807B",
"KX c #CE9F35",
"R@ c #CE9F36",
"5o c #9FA0A3",
"f@ c #F9D971",
";  c #EFEFEE",
"yo c #E7CA7B",
"@# c #D4AC47",
"O+ c #9E9173",
"9# c #C2AF66",
"PO c #A9842D",
"9+ c #D4AC4C",
"q# c #FFEC89",
"V@ c #D6D6D6",
"u$ c #736F66",
"K# c #736F67",
"Xo c #FFEC91",
"<@ c #CEB166",
"<% c #8B7957",
"k# c #977B49",
"y+ c #92959C",
":# c #BDBDBD",
"G@ c #F2CF60",
"W+ c #F9E59E",
"^o c #7F7D75",
"FO c #D3A330",
"G# c #A4A4A3",
"0X c #A4A4A4",
"WO c #90773A",
"]+ c #907D43",
"M. c #DACB8F",
"'  c #CDA84E",
"3o c #8B8B8B",
"o# c #F2DB88",
"=  c #DBDAD2",
"<  c #FFF2BD",
"vo c #F3F0CB",
"lO c #F2E192",
"SX c #979388",
"f$ c #919290",
"To c #DBDAD6",
"r. c #919292",
"_$ c #919294",
"o@ c #BCBAB6",
"=% c #9D9A95",
"HO c #CC9F32",
"4  c #F1D26B",
"Qo c #A9A89E",
"3+ c #D2A63C",
"e@ c #C8C8C8",
"JX c #D2A63E",
"(# c #CCA546",
"r# c #D2A63F",
"go c #CECFD1",
"!$ c #D3BB89",
":$ c #D8AD49",
"2o c #AFAFAF",
"w$ c #A1833B",
")+ c #A1894A",
"R$ c #E4B54E",
"8O c #A79050",
"_O c #A79051",
"[@ c #9B8253",
"jX c #B9933E",
"h@ c #A79058",
"G$ c #7D7D7C",
"n# c #947225",
"#+ c #958767",
"&$ c #C5A148",
"#% c #E4BB68",
"*# c #CBA244",
"%% c #FEF5E2",
"&# c #D7AA3F",
"Y$ c #DDAB39",
"tX c #D7AA40",
"dX c #B9AB6A",
"   c #D8CB91",
"Go c #F1EABE",
"`  c #D7AA42",
"/. c #D8CB93",
"t+ c #8F8C82",
"#O c #DDB144",
"hX c #BFA661",
"3. c #D7B04F",
"q  c #CCC3A1",
"}$ c #82755B",
"_o c #9B9A8F",
"bX c #95938F",
"(  c #A19B8D",
"2X c #BABABA",
",O c #EAE0A8",
"Y# c #75643B",
"S$ c #82817B",
";# c #A1A1A1",
"1. c #C49E43",
"p@ c #82817E",
"7$ c #E2AF35",
"i# c #D6A73D",
"8# c #BEA359",
"d@ c #F5D979",
"C+ c #E2BB48",
"*. c #888888",
"H+ c #D6B351",
"~O c #937B41",
"4. c #A58433",
"+  c #C5BFA5",
"D+ c #998244",
"j  c #FBE084",
/* pixels */
"  . X o O + @ # $ % & * = - ; : > , < 1 2 3 4 5 6 7 8 9 0 0 0 0 ",
"  . X o O + q w e r t y u i p a s d f g h j k l 6 7 8 9 0 0 0 0 ",
"  . z z x c v b n m M N B V C Z A S D F G H J K L P I U U U 0 0 ",
"  . z z x Y T R E W Q ! ~ ^ / ( ) _ ` ' ] [ { } |  ...U U U X.X.",
"  . z z o.O.+.@.#.$.%.&.*.=.-.;.:.>.,.<.1.2.3.4.5.6.7.8.U U 9.9.",
"  . x 0.O.q.w.e.r.t.~ y.u.i.p.a.s.d.f.g.h.j.k.l.z.x.c.v.b.n.m.m.",
"  M.N.B.V.C.Z.A.S.! t.D.~ ~ F.G.H.J.K.L.P.I.U.Y.T.R.E.W.Q.!.~.~.",
"^./.(.)._.`.'.].[.{.}.|. Xt..XG.XXoXOX+X@X#X$X%X&X*X=X-X;X:X>X,X",
"<X1X2X3X4X5X6X7X! 8X9X0XqXwXeXrXXXtXyXuXiXpXaXsXdXfXgXhXjXkXlXzX",
"xXcXvXbXc nXmXMXNXBXVXD.CXZXAXSXDXFXGXHXJXKXLXPXIXUXYXTXRXEXWXQX",
"!X~X^X/X(X)X_XMX`XNX'XVX]XqX[XSXXX{X}X|X o.oXoooOo+o@o#o$o%o&o*o",
"=o-o;o:o_X0X%.>o,o<o1o2o3o4o5o6o7o8o9o0oqowoeorotoyouoiopoaosodo",
"fogohojokolozoxocovobonomoMoNoBoVoCoZoAoSoDoFoGoHoJoKoLoPoIoUoYo",
"ToRoEoWoko XQo!o~o^o/o(o)o_o`o'o]o[o{o}o|o O.OXOoOOO+O@O#O$O%O&O",
"*O=O-O;O:O>O,O<O1O2oE 2O3O4O5O6O7O8O9O0OqOwOeOrOtOyOuOiOpOaOsOdO",
"fOgOhOjOhOkOlOzOxOcOvObOnOmOMONOBOVOCOZOAOSODOFOGOHOJOKOLOPOIOUO",
"YOTOROEOWOQO!O~O^O/O(O)O_O`O'O]O[O{O}O|O +.+X+o+O+++@+#+$+%+&+*+",
"=+-+;+:+>+,+<+1+2+3+4+5+6+7+8+9+0+q+w+e+r+t+y+u+i+p+a+s+d+f+g+h+",
"j+k+l+z+x+c+v+b+n+m+M+N+B+V+C+Z+A+S+D+F+G+H+J+K+L+P+I+U+Y+T+R+E+",
"W+Q+!+~+^+/+(+)+_+`+'+]+[+{+}+|+ @.@X@nXo@O@+@@@#@|.n |.$@%@&@*@",
"=@-@;@:@>@,@<@1@2@3@4@5@6@7@8@9@0@q@g+g+w@e@r@t@y@u@3X|.i@p@a@s@",
"d@f@g@h@j@k@l@z@UXx@c@v@b@}Xn@m@M@N@qXB@}.V@C@nX>o_X'X|.Z@A@S@D@",
"F@G@H@J@K@L@P@I@U@Y@T@R@I.E@W@Q@!@~@^@/@8X&.(@)@6Xi MX_@`@'@]@[@",
"{@}@|@ #.#X#o#O#+#@###$#uX%#&#*#=#-#komo}.VX;#V@i :#>#,#<#1#2#3#",
"4#5#6#7#8#9#0#q#w#e#r#t#y#u#i#p#a#eX;#4o4o! 8X~ s#Wod#f#g#h#j#k#",
"6#6#l#z#x#c#v#b#n#m#M#N#B#V#C#Z#a#A#]X;#S#D#D#F#y.G#H#J#K#L#P#I#",
"U#U#Y#T#R#<.E#W#Q#!#~#^#/#(#)#_#`#'#]X0XCX9X9X]#[#{#}#|# $.$X$I#",
"U#U#o$O$+$@$#$$$%$&$*$=$-$;$:$>$,$<$~ 3XB@1#i@1$2$3$4$5$.$.$X$I#",
"U#U#o$o$o$6$7$8$9$0$q$w$e$r$t$y$u$i$1Op$a$s$d$f$g$h$j$k$.$.$X$I#",
"U#U#o$o$o$l$z$x$c$v$b$n$m$M$N$B$V$C$Z$A$S$D$F$G$H$J$K$k$.$.$X$I#",
"U#U#l#L$P$I$z$U$Y$T$R$E$W$Q$!$~$^$/$($)$_$`$'$]$[${$}$|$ %.%X$I#",
"U#U#l#L$P$I$z$U$X%o%O%+%@%#%$%%%&%*%=%-%;%:%>%,%<%1%}$|$ %.%X$I#"
};
